<svg xmlns="http://www.w3.org/2000/svg" width="2064" height="2064" viewBox="0 0 2064 2064">
  <g id="Rabbit_icon_black" data-name="Rabbit icon black" transform="translate(4049 704)">
    <rect id="Rectangle_6" data-name="Rectangle 6" width="2064" height="2064" transform="translate(-4049 -704)" fill="none"/>
    <g id="Artboard_1" data-name="Artboard 1" transform="translate(-4049 -493.876)">
      <path id="rabbit_icon" data-name="rabbit icon" d="M2329,942.8l-67.811,72.049s-33.588,18.813-67.811-12.715L2061.994,874.989l-474.678,216.148s-131.342,47.006-245.815-8.476l-29.667,76.287s79.411,48.655,224.624,29.667L900.729,1832.82H777.821l224.624-389.914H417.575S273.993,1427.649,265,1290.332l237.339-233.1s39.373-43.959,114.431-33.906c0,0-20.636-329.609,283.959-550.965,0,0,73.6,298.085-182.242,584.871L837.156,1175.9,1197.4,561.363l.64.187A336.754,336.754,0,0,1,1823.871,734.2c0,3.153-.148,6.272-.238,9.4h310.41ZM633.723,1527.671H824.442v63.573L582.864,1832.82H459.957ZM1673.093,187.876a93.488,93.488,0,1,1-.008,0ZM533.667,1171.34a40.449,40.449,0,1,1-40.449,40.449A40.449,40.449,0,0,1,533.667,1171.34Z" transform="translate(-265 -188)" fill="#0c1117" fill-rule="evenodd"/>
    </g>
  </g>
</svg>
